<?xml version="1.0" encoding="UTF-8"?>
<svg width="30px" height="30px" viewBox="0 0 30 30" version="1.1" xmlns="http://www.w3.org/2000/svg" xmlns:xlink="http://www.w3.org/1999/xlink">
    <!-- Generator: Sketch 52.5 (67469) - http://www.bohemiancoding.com/sketch -->
    <title>Instagram-color</title>
    <desc>Created with Sketch.</desc>
    <g id="Website" stroke="none" stroke-width="1" fill="none" fill-rule="evenodd">
        <g id="Home-Page-1" transform="translate(-345.000000, -8034.000000)" fill="#14379B">
            <g id="Group-19" transform="translate(129.000000, 7942.000000)">
                <g id="ICONS" transform="translate(0.000000, 92.000000)">
                    <path d="M231.00003,0 C235.073755,0 235.584571,0.0172673522 237.184481,0.0902665722 C238.781056,0.163087164 239.871459,0.416679071 240.82557,0.787510346 C241.811953,1.17078602 242.648466,1.68368592 243.48242,2.51757995 C244.316314,3.35153352 244.829214,4.18804742 245.212549,5.17443003 C245.583321,6.12854055 245.836913,7.21894407 245.909733,8.81551918 C245.982733,10.4154287 246,10.9262446 246,15.0000298 C246,19.0737554 245.982733,19.5845713 245.909733,21.1844808 C245.836913,22.7810559 245.583321,23.8714594 245.212549,24.82557 C244.829214,25.8119526 244.316314,26.6484665 243.48242,27.48242 C242.648466,28.3163141 241.811953,28.829214 240.82557,29.2125492 C239.871459,29.5833209 238.781056,29.8369128 237.184481,29.9097334 C235.584571,29.9827326 235.073755,30 231.00003,30 C226.926245,30 226.415429,29.9827326 224.815519,29.9097334 C223.218944,29.8369128 222.128541,29.5833209 221.17443,29.2125492 C220.188047,28.829214 219.351534,28.3163141 218.51758,27.48242 C217.683686,26.6484665 217.170786,25.8119526 216.78751,24.82557 C216.416679,23.8714594 216.163087,22.7810559 216.090267,21.1844808 C216.017267,19.5845713 216,19.0737554 216,15.0000298 C216,10.9262446 216.017267,10.4154287 216.090267,8.81551918 C216.163087,7.21894407 216.416679,6.12854055 216.78751,5.17443003 C217.170786,4.18804742 217.683686,3.35153352 218.51758,2.51757995 C219.351534,1.68368592 220.188047,1.17078602 221.17443,0.787510346 C222.128541,0.416679071 223.218944,0.163087164 224.815519,0.0902665722 C226.415429,0.0172673522 226.926245,0 231.00003,0 Z M231.00003,2.70269787 C226.994838,2.70269787 226.520402,2.71800032 224.938713,2.79016595 C223.476228,2.85685365 222.681989,3.10121646 222.153429,3.3066384 C221.453268,3.57874806 220.953587,3.90379108 220.428719,4.42871858 C219.903791,4.95358655 219.578748,5.453268 219.306638,6.15342936 C219.101216,6.68198896 218.856854,7.47622762 218.790166,8.93871281 C218.718,10.5204023 218.702698,10.9948377 218.702698,15.0000298 C218.702698,19.0051623 218.718,19.4795977 218.790166,21.0612872 C218.856854,22.5237724 219.101216,23.318011 219.306638,23.8465706 C219.578748,24.546732 219.903851,25.0464135 220.428719,25.5712814 C220.953587,26.0962089 221.453268,26.4212519 222.153429,26.6933616 C222.681989,26.8987835 223.476228,27.1431463 224.938713,27.2098341 C226.520224,27.2819997 226.99454,27.2973021 231.00003,27.2973021 C235.00546,27.2973021 235.479836,27.2819997 237.061287,27.2098341 C238.523772,27.1431463 239.318011,26.8987835 239.846571,26.6933616 C240.546732,26.4212519 241.046413,26.0962089 241.571281,25.5712814 C242.096209,25.0464135 242.421252,24.546732 242.693362,23.8465706 C242.898784,23.318011 243.143146,22.5237724 243.209834,21.0612872 C243.282,19.4795977 243.297302,19.0051623 243.297302,15.0000298 C243.297302,10.9948377 243.282,10.5204023 243.209834,8.93871281 C243.143146,7.47622762 242.898784,6.68198896 242.693362,6.15342936 C242.421252,5.453268 242.096209,4.95358655 241.571281,4.42871858 C241.046413,3.90379108 240.546732,3.57874806 239.846571,3.3066384 C239.318011,3.10121646 238.523772,2.85685365 237.061287,2.79016595 C235.479598,2.71800032 235.005162,2.70269787 231.00003,2.70269787 Z M231.00003,7.29730213 C235.25411,7.29730213 238.702698,10.7458901 238.702698,15.0000298 C238.702698,19.2541099 235.25411,22.7026979 231.00003,22.7026979 C226.74589,22.7026979 223.297302,19.2541099 223.297302,15.0000298 C223.297302,10.7458901 226.74589,7.29730213 231.00003,7.29730213 Z M231.00003,20 C233.761437,20 236,17.7614366 236,15.0000298 C236,12.2385634 233.761437,10 231.00003,10 C228.238563,10 226,12.2385634 226,15.0000298 C226,17.7614366 228.238563,20 231.00003,20 Z M240.807052,6.99297993 C240.807052,7.98710307 240.001143,8.79295254 239.00702,8.79295254 C238.012956,8.79295254 237.207047,7.98710307 237.207047,6.99297993 C237.207047,5.99885678 238.012956,5.19294778 239.00702,5.19294778 C240.001143,5.19294778 240.807052,5.99885678 240.807052,6.99297993 Z" id="Instagram"></path>
                </g>
            </g>
        </g>
    </g>
</svg>