<?xml version="1.0" encoding="UTF-8"?>
<svg width="30px" height="28px" viewBox="0 0 30 28" version="1.1" xmlns="http://www.w3.org/2000/svg" xmlns:xlink="http://www.w3.org/1999/xlink">
    <!-- Generator: Sketch 52.5 (67469) - http://www.bohemiancoding.com/sketch -->
    <title>Twitter-color</title>
    <desc>Created with Sketch.</desc>
    <g id="Website" stroke="none" stroke-width="1" fill="none" fill-rule="evenodd">
        <g id="Home-Page-1" transform="translate(-237.000000, -8034.000000)" fill="#14379B">
            <g id="Group-19" transform="translate(129.000000, 7942.000000)">
                <g id="ICONS" transform="translate(0.000000, 92.000000)">
                    <path d="M138,3.31469845 C136.897693,3.87692308 135.710865,4.25713254 134.465927,4.42701336 C135.737278,3.55334056 136.712802,2.16800289 137.17239,0.517732033 C135.982039,1.32668834 134.666667,1.91520404 133.26149,2.230697 C132.141574,0.85749368 130.54094,0 128.769502,0 C125.372777,0 122.61701,3.16504153 122.61701,7.06825569 C122.61701,7.62239075 122.669836,8.1603467 122.775489,8.67807873 C117.660151,8.38280968 113.125902,5.57168653 110.088396,1.2902853 C109.558373,2.33788371 109.255503,3.55334056 109.255503,4.84767064 C109.255503,7.29880823 110.341962,9.46276634 111.993661,10.7308053 C110.986441,10.6964247 110.03557,10.3748646 109.204437,9.84904298 L109.204437,9.93600578 C109.204437,13.3619357 111.32629,16.2195739 114.143687,16.8667389 C113.627751,17.0325749 113.083641,17.115493 112.521923,17.115493 C112.125726,17.115493 111.738334,17.0730228 111.363268,16.9901047 C112.146857,19.7971831 114.418384,21.8418202 117.11252,21.8964247 C115.006515,23.7934272 112.351118,24.9239437 109.468568,24.9239437 C108.972002,24.9239437 108.480718,24.8915854 108,24.8268689 C110.724071,26.8290358 113.960556,28 117.43476,28 C128.757176,28 134.946646,17.2307692 134.946646,7.88934633 C134.946646,7.58194294 134.941363,7.27453954 134.930798,6.97320332 C136.133474,5.97616468 137.177672,4.73239437 138,3.31469845" id="Twitter"></path>
                </g>
            </g>
        </g>
    </g>
</svg>